<?xml version="1.0" encoding="utf-8"?>
<!-- Generator: Adobe Illustrator 27.7.0, SVG Export Plug-In . SVG Version: 6.00 Build 0)  -->
<svg version="1.1" id="レイヤー_1" xmlns="http://www.w3.org/2000/svg" xmlns:xlink="http://www.w3.org/1999/xlink" x="0px"
	 y="0px" viewBox="0 0 912 213.6" style="enable-background:new 0 0 912 213.6;" xml:space="preserve">
<style type="text/css">
	.st0{clip-path:url(#SVGID_00000004519530149267086600000003451123344128344229_);}
	.st1{fill:#FFFFFF;}
	.st2{clip-path:url(#SVGID_00000090296992102231404850000015371754727079558590_);}
	.st3{fill:none;stroke:#777777;}
	.st4{clip-path:url(#SVGID_00000016074673344985158240000007909675812792771749_);}
	.st5{fill:none;stroke:#8FE9D0;stroke-width:3;}
	.st6{fill:#8FE9D0;}
	.st7{clip-path:url(#SVGID_00000079472945200388789680000013848193349184222376_);}
	.st8{fill:none;stroke:#FFCC21;stroke-width:3;}
	.st9{fill:#FFCC21;}
</style>
<g>
	<g>
		<g>
			<g>
				<defs>
					<rect id="SVGID_1_" x="23" y="187" width="866" height="26.6"/>
				</defs>
				<clipPath id="SVGID_00000089543178350829283930000016447768053317534909_">
					<use xlink:href="#SVGID_1_"  style="overflow:visible;"/>
				</clipPath>
				<g style="clip-path:url(#SVGID_00000089543178350829283930000016447768053317534909_);">
					<path class="st1" d="M569.2,190.3v8.7h-1.1v-7.6H568l-2.1,1.4v-1.1l2.2-1.4L569.2,190.3L569.2,190.3z"/>
					<path class="st1" d="M578.9,196v1.8c0,0.2-0.1,0.2-0.3,0.2c-0.4,0-0.7,0-1.1-0.1c0.1,0.2,0.1,0.3,0.1,0.5c0.4,0,0.7,0,1,0
						c0.4,0,0.5,0,0.6-0.1c0.2-0.1,0.2-0.3,0.2-0.6v-5.3c0-0.4,0-0.6,0-0.8c-0.3,0-0.5,0-0.8,0h-3c-0.3,0-0.6,0-0.8,0
						c0,0.3,0,0.6,0,1.4c0,1.8-0.1,2.8-0.3,3.5c-0.2,0.6-0.4,1.1-0.9,1.6c0.2,0.1,0.3,0.2,0.4,0.4c0.4-0.5,0.7-0.9,0.9-1.4
						c0.2-0.4,0.3-0.8,0.3-1.2h3.7V196z M575.3,195.5c0.1-0.7,0.1-1,0.1-1.4h3.6v1.4H575.3z M575.4,193.6v-0.2v-1.1h3.6v1.3H575.4z"
						/>
					<path class="st1" d="M876,199.1c-0.5,0-0.9-0.1-1.4-0.3c-0.4-0.2-0.7-0.5-1-0.8c-0.2-0.3-0.4-0.7-0.4-1.2h1
						c0,0.4,0.2,0.7,0.5,1s0.7,0.4,1.1,0.4c0.4,0,0.7-0.1,1-0.3s0.5-0.4,0.7-0.7s0.2-0.6,0.2-1s-0.1-0.7-0.3-1s-0.4-0.5-0.7-0.7
						s-0.6-0.3-1-0.3c-0.3,0-0.5,0-0.8,0.1s-0.5,0.2-0.7,0.3l-1-0.1l0.5-4.3h4.5v0.9h-3.6l-0.3,2.6h0.1c0.2-0.1,0.4-0.3,0.7-0.4
						c0.3-0.1,0.6-0.1,0.8-0.1c0.5,0,1,0.1,1.4,0.4c0.4,0.3,0.8,0.6,1,1s0.4,0.9,0.4,1.5s-0.1,1.1-0.4,1.5c-0.2,0.4-0.6,0.8-1,1
						C877,199,876.5,199.1,876,199.1z"/>
					<path class="st1" d="M886.9,196v1.8c0,0.2-0.1,0.2-0.3,0.2c-0.4,0-0.7,0-1.1-0.1c0.1,0.2,0.1,0.3,0.1,0.5c0.4,0,0.7,0,1,0
						c0.4,0,0.5,0,0.6-0.1c0.2-0.1,0.2-0.3,0.2-0.6v-5.3c0-0.4,0-0.6,0-0.8c-0.3,0-0.5,0-0.8,0h-3c-0.3,0-0.6,0-0.8,0
						c0,0.3,0,0.6,0,1.4c0,1.8-0.1,2.8-0.3,3.5c-0.2,0.6-0.4,1.1-0.9,1.6c0.2,0.1,0.3,0.2,0.4,0.4c0.4-0.5,0.7-0.9,0.9-1.4
						c0.2-0.4,0.3-0.8,0.3-1.2h3.7V196z M883.3,195.5c0.1-0.7,0.1-1,0.1-1.4h3.6v1.4H883.3z M883.4,193.6v-0.2v-1.1h3.6v1.3H883.4z"
						/>
					<path class="st1" d="M642.3,199v-0.8l2.9-3.2c0.3-0.4,0.6-0.7,0.8-1s0.4-0.5,0.5-0.8c0.1-0.2,0.2-0.5,0.2-0.8s-0.1-0.6-0.2-0.8
						c-0.1-0.2-0.3-0.4-0.6-0.5s-0.5-0.2-0.9-0.2c-0.3,0-0.6,0.1-0.9,0.2c-0.2,0.1-0.4,0.3-0.6,0.6c-0.1,0.2-0.2,0.5-0.2,0.9h-1
						c0-0.5,0.1-1,0.4-1.3c0.2-0.4,0.6-0.7,1-0.9s0.9-0.3,1.4-0.3s1,0.1,1.4,0.3s0.7,0.5,0.9,0.9s0.3,0.8,0.3,1.2
						c0,0.3-0.1,0.6-0.2,0.9c-0.1,0.3-0.3,0.6-0.6,1s-0.7,0.8-1.2,1.4l-2,2.1v0.1h4.1v0.9h-5.5V199z"/>
					<path class="st1" d="M655.9,196v1.8c0,0.2-0.1,0.2-0.3,0.2c-0.4,0-0.7,0-1.1-0.1c0.1,0.2,0.1,0.3,0.1,0.5c0.4,0,0.7,0,1,0
						c0.4,0,0.5,0,0.6-0.1c0.2-0.1,0.2-0.3,0.2-0.6v-5.3c0-0.4,0-0.6,0-0.8c-0.3,0-0.5,0-0.8,0h-3c-0.3,0-0.6,0-0.8,0
						c0,0.3,0,0.6,0,1.4c0,1.8-0.1,2.8-0.3,3.5c-0.2,0.6-0.4,1.1-0.9,1.6c0.2,0.1,0.3,0.2,0.4,0.4c0.4-0.5,0.7-0.9,0.9-1.4
						c0.2-0.4,0.3-0.8,0.3-1.2h3.7V196z M652.3,195.5c0.1-0.7,0.1-1,0.1-1.4h3.6v1.4H652.3z M652.4,193.6v-0.2v-1.1h3.6v1.3H652.4z"
						/>
					<path class="st1" d="M26.1,199.1c-0.4,0-0.7-0.1-1.1-0.2c-0.4-0.1-0.7-0.4-1-0.7s-0.5-0.7-0.7-1.3c-0.2-0.5-0.3-1.2-0.3-2
						s0.1-1.5,0.2-2.1c0.1-0.6,0.4-1.1,0.6-1.5c0.3-0.4,0.6-0.7,1-0.9s0.8-0.3,1.3-0.3s0.9,0.1,1.3,0.3c0.4,0.2,0.7,0.5,0.9,0.8
						s0.4,0.7,0.5,1.2h-1c-0.1-0.4-0.3-0.7-0.6-1s-0.6-0.4-1.1-0.4c-0.7,0-1.2,0.3-1.6,0.9c-0.4,0.6-0.6,1.4-0.6,2.5H24
						c0.2-0.2,0.3-0.4,0.6-0.6c0.2-0.2,0.5-0.3,0.7-0.4c0.3-0.1,0.5-0.1,0.8-0.1c0.5,0,1,0.1,1.4,0.4c0.4,0.2,0.7,0.6,1,1
						c0.2,0.4,0.4,0.9,0.4,1.5c0,0.5-0.1,1-0.4,1.5c-0.2,0.4-0.6,0.8-1,1.1C27.2,199,26.6,199.1,26.1,199.1z M26.1,198.2
						c0.4,0,0.7-0.1,1-0.3s0.5-0.4,0.7-0.7s0.3-0.6,0.3-1s-0.1-0.7-0.2-1c-0.2-0.3-0.4-0.5-0.7-0.7s-0.6-0.3-1-0.3
						c-0.3,0-0.5,0.1-0.8,0.2c-0.2,0.1-0.4,0.2-0.6,0.4c-0.2,0.2-0.3,0.4-0.4,0.6c-0.1,0.2-0.1,0.5-0.1,0.7c0,0.3,0.1,0.7,0.2,1
						c0.2,0.3,0.4,0.5,0.7,0.7C25.4,198.1,25.7,198.2,26.1,198.2z"/>
					<path class="st1" d="M36.9,196v1.8c0,0.2-0.1,0.2-0.3,0.2c-0.4,0-0.7,0-1.1-0.1c0.1,0.2,0.1,0.3,0.1,0.5c0.4,0,0.7,0,1,0
						c0.4,0,0.5,0,0.6-0.1c0.2-0.1,0.2-0.3,0.2-0.6v-5.3c0-0.4,0-0.6,0-0.8c-0.3,0-0.5,0-0.8,0h-3c-0.3,0-0.6,0-0.8,0
						c0,0.3,0,0.6,0,1.4c0,1.8-0.1,2.8-0.3,3.5c-0.2,0.6-0.4,1.1-0.9,1.6c0.2,0.1,0.3,0.2,0.4,0.4c0.4-0.5,0.7-0.9,0.9-1.4
						c0.2-0.4,0.3-0.8,0.3-1.2h3.7V196z M33.3,195.5c0.1-0.7,0.1-1,0.1-1.4H37v1.4H33.3z M33.4,193.6v-0.2v-1.1H37v1.3H33.4z"/>
					<path class="st1" d="M256.9,190.2c0.4,0,0.7,0.1,1.1,0.2c0.4,0.1,0.7,0.4,1,0.7s0.5,0.7,0.7,1.3c0.2,0.5,0.3,1.2,0.3,2
						s-0.1,1.5-0.2,2.1s-0.4,1.1-0.6,1.5c-0.3,0.4-0.6,0.7-1,0.9s-0.8,0.3-1.3,0.3s-0.9-0.1-1.3-0.3s-0.7-0.5-0.9-0.8
						c-0.2-0.4-0.4-0.8-0.5-1.2h1c0.1,0.4,0.3,0.7,0.6,1c0.3,0.3,0.7,0.4,1.1,0.4c0.7,0,1.2-0.3,1.6-0.9c0.4-0.6,0.6-1.4,0.6-2.5
						H259c-0.2,0.2-0.3,0.4-0.6,0.6c-0.2,0.2-0.5,0.3-0.7,0.4c-0.3,0.1-0.6,0.1-0.9,0.1c-0.5,0-1-0.1-1.4-0.4c-0.4-0.2-0.7-0.6-1-1
						c-0.2-0.4-0.4-0.9-0.4-1.5c0-0.5,0.1-1,0.4-1.5c0.2-0.4,0.6-0.8,1-1.1C255.8,190.3,256.3,190.1,256.9,190.2z M256.9,191.1
						c-0.4,0-0.7,0.1-1,0.3s-0.5,0.4-0.7,0.7s-0.2,0.6-0.2,1s0.1,0.7,0.2,1c0.2,0.3,0.4,0.5,0.7,0.7c0.3,0.2,0.6,0.3,1,0.3
						c0.3,0,0.5-0.1,0.8-0.2c0.2-0.1,0.4-0.3,0.6-0.4c0.2-0.2,0.3-0.4,0.4-0.6c0.1-0.2,0.1-0.5,0.1-0.7c0-0.3-0.1-0.7-0.2-1
						c-0.2-0.3-0.4-0.5-0.7-0.7C257.6,191.2,257.3,191.1,256.9,191.1z"/>
					<path class="st1" d="M267.9,196v1.8c0,0.2-0.1,0.2-0.3,0.2c-0.4,0-0.7,0-1.1-0.1c0.1,0.2,0.1,0.3,0.1,0.5c0.4,0,0.7,0,1,0
						c0.4,0,0.5,0,0.6-0.1c0.2-0.1,0.2-0.3,0.2-0.6v-5.3c0-0.4,0-0.6,0-0.8c-0.3,0-0.5,0-0.8,0h-3c-0.3,0-0.6,0-0.8,0
						c0,0.3,0,0.6,0,1.4c0,1.8-0.1,2.8-0.3,3.5c-0.2,0.6-0.4,1.1-0.9,1.6c0.2,0.1,0.3,0.2,0.4,0.4c0.4-0.5,0.7-0.9,0.9-1.4
						c0.2-0.4,0.3-0.8,0.3-1.2h3.7V196z M264.3,195.5c0.1-0.7,0.1-1,0.1-1.4h3.6v1.4H264.3z M264.4,193.6v-0.2v-1.1h3.6v1.3H264.4z"
						/>
					<path class="st1" d="M722,199.1c-0.6,0-1.1-0.1-1.5-0.3s-0.8-0.5-1-0.8c-0.3-0.3-0.4-0.7-0.4-1.2h1.1c0,0.3,0.1,0.5,0.3,0.7
						s0.4,0.4,0.7,0.5s0.6,0.2,0.9,0.2c0.4,0,0.7-0.1,1-0.2c0.3-0.1,0.5-0.3,0.7-0.5s0.2-0.5,0.2-0.8s-0.1-0.6-0.2-0.8
						c-0.2-0.2-0.4-0.4-0.7-0.6c-0.3-0.1-0.7-0.2-1.1-0.2h-0.7v-0.9h0.7c0.3,0,0.6-0.1,0.9-0.2c0.3-0.1,0.5-0.3,0.6-0.5
						c0.2-0.2,0.2-0.5,0.2-0.8s-0.1-0.6-0.2-0.8c-0.1-0.2-0.3-0.4-0.6-0.5c-0.2-0.1-0.5-0.2-0.8-0.2s-0.6,0.1-0.9,0.2
						c-0.3,0.1-0.5,0.3-0.6,0.5c-0.2,0.2-0.3,0.5-0.3,0.7h-1c0-0.5,0.2-0.9,0.4-1.2c0.3-0.3,0.6-0.6,1-0.8s0.9-0.3,1.4-0.3
						s1,0.1,1.4,0.3s0.7,0.5,0.9,0.9s0.3,0.7,0.3,1.2s-0.1,0.9-0.4,1.3c-0.3,0.3-0.6,0.6-1,0.7v0.1c0.6,0.1,1,0.3,1.3,0.7
						s0.5,0.8,0.5,1.4c0,0.5-0.1,0.9-0.4,1.3c-0.3,0.4-0.6,0.7-1,0.9C723.1,199,722.6,199.1,722,199.1z"/>
					<path class="st1" d="M732.9,196v1.8c0,0.2-0.1,0.2-0.3,0.2c-0.4,0-0.7,0-1.1-0.1c0.1,0.2,0.1,0.3,0.1,0.5c0.4,0,0.7,0,1,0
						c0.4,0,0.5,0,0.6-0.1c0.2-0.1,0.2-0.3,0.2-0.6v-5.3c0-0.4,0-0.6,0-0.8c-0.3,0-0.5,0-0.8,0h-3c-0.3,0-0.6,0-0.8,0
						c0,0.3,0,0.6,0,1.4c0,1.8-0.1,2.8-0.3,3.5c-0.2,0.6-0.4,1.1-0.9,1.6c0.2,0.1,0.3,0.2,0.4,0.4c0.4-0.5,0.7-0.9,0.9-1.4
						c0.2-0.4,0.3-0.8,0.3-1.2h3.7V196z M729.3,195.5c0.1-0.7,0.1-1,0.1-1.4h3.6v1.4H729.3z M729.4,193.6v-0.2v-1.1h3.6v1.3H729.4z"
						/>
					<path class="st1" d="M101.2,199l3.9-7.7v-0.1h-4.5v-0.9h5.6v1l-3.9,7.7H101.2z"/>
					<path class="st1" d="M113.9,196v1.8c0,0.2-0.1,0.2-0.3,0.2c-0.4,0-0.7,0-1.1-0.1c0.1,0.2,0.1,0.3,0.1,0.5c0.4,0,0.7,0,1,0
						c0.4,0,0.5,0,0.6-0.1c0.2-0.1,0.2-0.3,0.2-0.6v-5.3c0-0.4,0-0.6,0-0.8c-0.3,0-0.5,0-0.8,0h-3c-0.3,0-0.6,0-0.8,0
						c0,0.3,0,0.6,0,1.4c0,1.8-0.1,2.8-0.3,3.5c-0.2,0.6-0.4,1.1-0.9,1.6c0.2,0.1,0.3,0.2,0.4,0.4c0.4-0.5,0.7-0.9,0.9-1.4
						c0.2-0.4,0.3-0.8,0.3-1.2h3.7V196z M110.3,195.5c0.1-0.7,0.1-1,0.1-1.4h3.6v1.4H110.3z M110.4,193.6v-0.2v-1.1h3.6v1.3H110.4z"
						/>
					<path class="st1" d="M333.4,190.3v8.7h-1.1v-7.6h-0.1l-2.1,1.4v-1.1l2.2-1.4L333.4,190.3L333.4,190.3z M338.8,199.1
						c-0.6,0-1.2-0.2-1.6-0.5c-0.5-0.4-0.8-0.9-1-1.5c-0.2-0.7-0.4-1.5-0.4-2.4s0.1-1.7,0.4-2.4c0.2-0.7,0.6-1.2,1-1.5
						c0.5-0.4,1-0.5,1.6-0.5s1.2,0.2,1.6,0.5c0.5,0.4,0.8,0.9,1,1.5c0.2,0.7,0.4,1.5,0.4,2.4s-0.1,1.8-0.4,2.4
						c-0.2,0.7-0.6,1.2-1,1.5C340,198.9,339.4,199.1,338.8,199.1z M338.8,198.2c0.6,0,1.1-0.3,1.5-0.9c0.4-0.6,0.5-1.5,0.5-2.6
						c0-0.8-0.1-1.4-0.2-1.9c-0.2-0.5-0.4-0.9-0.7-1.2c-0.3-0.3-0.7-0.4-1.1-0.4c-0.6,0-1.1,0.3-1.5,0.9c-0.4,0.6-0.5,1.5-0.5,2.6
						c0,0.8,0.1,1.4,0.2,1.9c0.2,0.5,0.4,0.9,0.7,1.2C338,198,338.4,198.2,338.8,198.2z"/>
					<path class="st1" d="M348.9,196v1.8c0,0.2-0.1,0.2-0.3,0.2c-0.4,0-0.7,0-1.1-0.1c0.1,0.2,0.1,0.3,0.1,0.5c0.4,0,0.7,0,1,0
						c0.4,0,0.5,0,0.6-0.1c0.2-0.1,0.2-0.3,0.2-0.6v-5.3c0-0.4,0-0.6,0-0.8c-0.3,0-0.5,0-0.8,0h-3c-0.3,0-0.6,0-0.8,0
						c0,0.3,0,0.6,0,1.4c0,1.8-0.1,2.8-0.3,3.5c-0.2,0.6-0.4,1.1-0.9,1.6c0.2,0.1,0.3,0.2,0.4,0.4c0.4-0.5,0.7-0.9,0.9-1.4
						c0.2-0.4,0.3-0.8,0.3-1.2h3.7V196z M345.3,195.5c0.1-0.7,0.1-1,0.1-1.4h3.6v1.4H345.3z M345.4,193.6v-0.2v-1.1h3.6v1.3H345.4z"
						/>
					<path class="st1" d="M795.8,197.2v-0.9l3.8-6.1h0.6v1.3h-0.4l-2.9,4.6v0.1h5.2v0.9L795.8,197.2L795.8,197.2z M800,199v-2.1
						v-0.4v-6.3h1v8.7h-1V199z"/>
					<path class="st1" d="M809.9,196v1.8c0,0.2-0.1,0.2-0.3,0.2c-0.4,0-0.7,0-1.1-0.1c0.1,0.2,0.1,0.3,0.1,0.5c0.4,0,0.7,0,1,0
						c0.4,0,0.5,0,0.6-0.1c0.2-0.1,0.2-0.3,0.2-0.6v-5.3c0-0.4,0-0.6,0-0.8c-0.3,0-0.5,0-0.8,0h-3c-0.3,0-0.6,0-0.8,0
						c0,0.3,0,0.6,0,1.4c0,1.8-0.1,2.8-0.3,3.5c-0.2,0.6-0.4,1.1-0.9,1.6c0.2,0.1,0.3,0.2,0.4,0.4c0.4-0.5,0.7-0.9,0.9-1.4
						c0.2-0.4,0.3-0.8,0.3-1.2h3.7V196z M806.3,195.5c0.1-0.7,0.1-1,0.1-1.4h3.6v1.4H806.3z M806.4,193.6v-0.2v-1.1h3.6v1.3H806.4z"
						/>
					<path class="st1" d="M180,199.1c-0.6,0-1.1-0.1-1.6-0.3c-0.4-0.2-0.8-0.5-1-0.9s-0.4-0.8-0.4-1.3c0-0.4,0.1-0.7,0.2-1
						c0.1-0.3,0.3-0.6,0.6-0.8s0.5-0.3,0.9-0.4v-0.1c-0.4-0.1-0.8-0.3-1-0.7s-0.4-0.8-0.4-1.2s0.1-0.8,0.3-1.2s0.5-0.6,0.9-0.8
						s0.9-0.3,1.4-0.3s1,0.1,1.4,0.3s0.7,0.5,0.9,0.8s0.3,0.7,0.3,1.2s-0.1,0.9-0.4,1.2c-0.2,0.4-0.6,0.6-1,0.7v0.1
						c0.3,0.1,0.6,0.2,0.9,0.4c0.3,0.2,0.5,0.5,0.6,0.8c0.2,0.3,0.2,0.7,0.2,1c0,0.5-0.1,0.9-0.4,1.3c-0.2,0.4-0.6,0.7-1,0.9
						C181.1,199,180.6,199.1,180,199.1z M180,198.2c0.4,0,0.7-0.1,1-0.2c0.3-0.1,0.5-0.3,0.7-0.5s0.2-0.5,0.2-0.8s-0.1-0.6-0.3-0.9
						c-0.2-0.3-0.4-0.5-0.7-0.6s-0.6-0.2-1-0.2s-0.7,0.1-1,0.2c-0.3,0.1-0.5,0.3-0.7,0.6s-0.2,0.5-0.2,0.9c0,0.3,0.1,0.6,0.2,0.8
						c0.2,0.2,0.4,0.4,0.7,0.5C179.3,198.1,179.6,198.2,180,198.2z M180,194c0.3,0,0.6-0.1,0.8-0.2c0.2-0.1,0.4-0.3,0.6-0.5
						c0.1-0.2,0.2-0.5,0.2-0.8s-0.1-0.6-0.2-0.8c-0.1-0.2-0.3-0.4-0.6-0.5c-0.2-0.1-0.5-0.2-0.8-0.2s-0.6,0.1-0.9,0.2
						c-0.2,0.1-0.4,0.3-0.6,0.5c-0.1,0.2-0.2,0.5-0.2,0.8s0.1,0.6,0.2,0.8c0.1,0.2,0.3,0.4,0.6,0.5C179.4,194,179.7,194,180,194z"/>
					<path class="st1" d="M190.9,196v1.8c0,0.2-0.1,0.2-0.3,0.2c-0.4,0-0.7,0-1.1-0.1c0.1,0.2,0.1,0.3,0.1,0.5c0.4,0,0.7,0,1,0
						c0.4,0,0.5,0,0.6-0.1c0.2-0.1,0.2-0.3,0.2-0.6v-5.3c0-0.4,0-0.6,0-0.8c-0.3,0-0.5,0-0.8,0h-3c-0.3,0-0.6,0-0.8,0
						c0,0.3,0,0.6,0,1.4c0,1.8-0.1,2.8-0.3,3.5c-0.2,0.6-0.4,1.1-0.9,1.6c0.2,0.1,0.3,0.2,0.4,0.4c0.4-0.5,0.7-0.9,0.9-1.4
						c0.2-0.4,0.3-0.8,0.3-1.2h3.7V196z M187.3,195.5c0.1-0.7,0.1-1,0.1-1.4h3.6v1.4H187.3z M187.4,193.6v-0.2v-1.1h3.6v1.3H187.4z"
						/>
					<path class="st1" d="M412.4,190.3v8.7h-1.1v-7.6h-0.1l-2.1,1.4v-1.1l2.2-1.4L412.4,190.3L412.4,190.3z M418,190.3v8.7h-1.1
						v-7.6h-0.1l-2.1,1.4v-1.1l2.2-1.4L418,190.3L418,190.3z"/>
					<path class="st1" d="M425.9,196v1.8c0,0.2-0.1,0.2-0.3,0.2c-0.4,0-0.7,0-1.1-0.1c0.1,0.2,0.1,0.3,0.1,0.5c0.4,0,0.7,0,1,0
						c0.4,0,0.5,0,0.6-0.1c0.2-0.1,0.2-0.3,0.2-0.6v-5.3c0-0.4,0-0.6,0-0.8c-0.3,0-0.5,0-0.8,0h-3c-0.3,0-0.6,0-0.8,0
						c0,0.3,0,0.6,0,1.4c0,1.8-0.1,2.8-0.3,3.5c-0.2,0.6-0.4,1.1-0.9,1.6c0.2,0.1,0.3,0.2,0.4,0.4c0.4-0.5,0.7-0.9,0.9-1.4
						c0.2-0.4,0.3-0.8,0.3-1.2h3.7V196z M422.3,195.5c0.1-0.7,0.1-1,0.1-1.4h3.6v1.4H422.3z M422.4,193.6v-0.2v-1.1h3.6v1.3H422.4z"
						/>
					<path class="st1" d="M490,190.3v8.7h-1v-7.6h-0.1l-2.1,1.4v-1.1l2.2-1.4L490,190.3L490,190.3z M492.6,199v-0.8l2.9-3.2
						c0.3-0.4,0.6-0.7,0.8-1s0.4-0.5,0.5-0.8c0.1-0.2,0.2-0.5,0.2-0.8s-0.1-0.6-0.2-0.8c-0.1-0.2-0.3-0.4-0.6-0.5s-0.5-0.2-0.9-0.2
						c-0.3,0-0.6,0.1-0.9,0.2c-0.2,0.1-0.4,0.3-0.6,0.6c-0.1,0.2-0.2,0.5-0.2,0.9h-1c0-0.5,0.1-1,0.4-1.3c0.2-0.4,0.6-0.7,1-0.9
						s0.9-0.3,1.4-0.3s1,0.1,1.4,0.3s0.7,0.5,0.9,0.9s0.3,0.8,0.3,1.2c0,0.3-0.1,0.6-0.2,0.9c-0.1,0.3-0.3,0.6-0.6,1
						s-0.7,0.8-1.2,1.4l-2,2.1v0.1h4.1v0.9h-5.5V199z"/>
					<path class="st1" d="M504.9,196v1.8c0,0.2-0.1,0.2-0.3,0.2c-0.4,0-0.7,0-1.1-0.1c0.1,0.2,0.1,0.3,0.1,0.5c0.4,0,0.7,0,1,0
						c0.4,0,0.5,0,0.6-0.1c0.2-0.1,0.2-0.3,0.2-0.6v-5.3c0-0.4,0-0.6,0-0.8c-0.3,0-0.5,0-0.8,0h-3c-0.3,0-0.6,0-0.8,0
						c0,0.3,0,0.6,0,1.4c0,1.8-0.1,2.8-0.3,3.5c-0.2,0.6-0.4,1.1-0.9,1.6c0.2,0.1,0.3,0.2,0.4,0.4c0.4-0.5,0.7-0.9,0.9-1.4
						c0.2-0.4,0.3-0.8,0.3-1.2h3.7V196z M501.3,195.5c0.1-0.7,0.1-1,0.1-1.4h3.6v1.4H501.3z M501.4,193.6v-0.2v-1.1h3.6v1.3H501.4z"
						/>
				</g>
			</g>
		</g>
		<g>
			<g>
				<defs>
					<rect id="SVGID_00000015315358189759660260000014955945986652575423_" x="31" width="851" height="185"/>
				</defs>
				<clipPath id="SVGID_00000133493277799432207820000016189628841685832115_">
					<use xlink:href="#SVGID_00000015315358189759660260000014955945986652575423_"  style="overflow:visible;"/>
				</clipPath>
				<g style="clip-path:url(#SVGID_00000133493277799432207820000016189628841685832115_);">
					<path class="st3" d="M31,0v185"/>
					<path class="st3" d="M108,0v185"/>
					<path class="st3" d="M185,0v185"/>
					<path class="st3" d="M263,0v185"/>
					<path class="st3" d="M340,0v185"/>
					<path class="st3" d="M417,0v185"/>
					<path class="st3" d="M495,0v185"/>
					<path class="st3" d="M572,0v185"/>
					<path class="st3" d="M649,0v185"/>
					<path class="st3" d="M727,0v185"/>
					<path class="st3" d="M804,0v185"/>
					<path class="st3" d="M882,0v185"/>
				</g>
			</g>
		</g>
		<g>
			<g>
				<defs>
					<rect id="SVGID_00000107557303186683821200000000406404744913398670_" x="27.2" y="21.5" width="858.8" height="151.5"/>
				</defs>
				<clipPath id="SVGID_00000085229665459817574300000004648936085696958637_">
					<use xlink:href="#SVGID_00000107557303186683821200000000406404744913398670_"  style="overflow:visible;"/>
				</clipPath>
				<g style="clip-path:url(#SVGID_00000085229665459817574300000004648936085696958637_);">
					<path class="st5" d="M31.2,25.3l77.4,12.5L186,65.9l77.4,5.2l77.4,27.4l77.4,2.6l77.4,17.6l77.4,3.9l77.4,9.1l77.4,23.5
						l77.4,6.8l77.3,6.9"/>
					<circle class="st6" cx="108.7" cy="38" r="4"/>
					<circle class="st6" cx="31.2" cy="25.5" r="4"/>
					<circle class="st6" cx="185.7" cy="65.3" r="4"/>
					<circle class="st6" cx="263.8" cy="71.5" r="4"/>
					<circle class="st6" cx="340.2" cy="98" r="4"/>
					<circle class="st6" cx="417.1" cy="101.6" r="4"/>
					<circle class="st6" cx="495" cy="118.6" r="4"/>
					<circle class="st6" cx="572.5" cy="122.6" r="4"/>
					<circle class="st6" cx="649.4" cy="132.3" r="4"/>
					<circle class="st6" cx="727" cy="155" r="4"/>
					<circle class="st6" cx="882" cy="169" r="4"/>
					<circle class="st6" cx="805" cy="162" r="4"/>
				</g>
			</g>
		</g>
		<g>
			<g>
				<defs>
					<rect id="SVGID_00000047036919479162854800000016463999800861836971_" x="27.2" y="21.5" width="858.8" height="142.5"/>
				</defs>
				<clipPath id="SVGID_00000147924842428019301110000003846937798617853589_">
					<use xlink:href="#SVGID_00000047036919479162854800000016463999800861836971_"  style="overflow:visible;"/>
				</clipPath>
				<g style="clip-path:url(#SVGID_00000147924842428019301110000003846937798617853589_);">
					<path class="st8" d="M31.2,25.3l77.3,8.4l77.3,70.6L263.3,55l76.9,21.3l77.6,15.8l77.6-20.3l77,33.3l77.1,10.2l76.4,16.1
						l78.8,18l76.8,10.1"/>
					<circle class="st9" cx="108.7" cy="35" r="4"/>
					<circle class="st9" cx="31.2" cy="25.5" r="4"/>
					<circle class="st9" cx="185.7" cy="104" r="4"/>
					<circle class="st9" cx="804" cy="149" r="4"/>
					<circle class="st9" cx="882" cy="160" r="4"/>
					<circle class="st9" cx="263.8" cy="56" r="4"/>
					<circle class="st9" cx="339.6" cy="76" r="4"/>
					<circle class="st9" cx="416.9" cy="92" r="4"/>
					<circle class="st9" cx="572.9" cy="105" r="4"/>
					<circle class="st9" cx="648.7" cy="115" r="4"/>
					<circle class="st9" cx="727" cy="131" r="4"/>
					<circle class="st9" cx="495.6" cy="72" r="4"/>
				</g>
			</g>
		</g>
	</g>
</g>
</svg>
